<svg xmlns="http://www.w3.org/2000/svg" width="74" height="68" viewBox="0 0 74 68" fill="none">
<path d="M47.7893 7.31278C48.3872 7.31278 48.8719 6.82811 48.8719 6.23024C48.8719 5.63237 48.3872 5.14771 47.7893 5.14771C47.1915 5.14771 46.7068 5.63237 46.7068 6.23024C46.7068 6.82811 47.1915 7.31278 47.7893 7.31278Z" fill="#ffb400"/>
<path d="M52.4414 7.31278C53.0393 7.31278 53.524 6.82811 53.524 6.23024C53.524 5.63237 53.0393 5.14771 52.4414 5.14771C51.8436 5.14771 51.3589 5.63237 51.3589 6.23024C51.3589 6.82811 51.8436 7.31278 52.4414 7.31278Z" fill="#ffb400"/>
<path d="M20.4758 7.31421H39.9569C40.5555 7.31421 41.0409 6.82887 41.0409 6.23022C41.0409 5.63158 40.5555 5.14624 39.9569 5.14624H20.4758C19.8772 5.14624 19.3918 5.63158 19.3918 6.23022C19.3918 6.82887 19.8772 7.31421 20.4758 7.31421Z" fill="#ffb400"/>
<path d="M71.1202 56.3693H69.2178V49.2682C69.2178 48.6696 68.7324 48.1842 68.1338 48.1842C67.5351 48.1842 67.0498 48.6696 67.0498 49.2682V56.3693C62.404 56.3693 9.81729 56.3693 6.95036 56.3693V19.7625C6.95036 18.2882 8.14968 17.0888 9.62405 17.0888H14.7685V20.009H11.9462C10.8017 20.009 9.87062 20.9402 9.87062 22.0848V51.3733C9.87062 52.5179 10.8017 53.4491 11.9462 53.4491H62.0536C63.1982 53.4491 64.1292 52.5179 64.1292 51.3733V22.0848C64.1292 20.9402 63.1982 20.009 62.0536 20.009H59.2315V17.0888H64.376C65.8502 17.0888 67.0496 18.2881 67.0496 19.7625V44.1975C67.0496 44.7961 67.535 45.2815 68.1336 45.2815C68.7323 45.2815 69.2176 44.7961 69.2176 44.1975V19.7625C69.2176 17.0928 67.0457 14.9208 64.376 14.9208H59.2315V2.9912C59.2315 1.76558 58.2344 0.768311 57.0086 0.768311H16.9914C15.7656 0.768311 14.7685 1.76543 14.7685 2.9912V14.9208H9.6239C6.95427 14.9208 4.78225 17.0927 4.78225 19.7625V56.3695H2.87979C1.29182 56.3693 0 57.6613 0 59.2493C0 63.6507 3.58091 67.2316 7.98232 67.2316H66.0177C70.4191 67.2316 74 63.6507 74 59.2493C74 57.6612 72.7082 56.3693 71.1202 56.3693ZM12.0386 22.177H14.7683V51.2811H12.0386V22.177ZM61.9614 22.177V51.2811H59.2317V22.177H61.9614ZM16.9914 2.93642H57.0088C57.039 2.93642 57.0637 2.96099 57.0637 2.99135V9.52416H25.4164C24.8178 9.52416 24.3324 10.0095 24.3324 10.6081C24.3324 11.2068 24.8178 11.6921 25.4164 11.6921H57.0637V51.2813H16.9363V11.692H20.3487C20.9473 11.692 21.4327 11.2066 21.4327 10.608C21.4327 10.0093 20.9473 9.52401 20.3487 9.52401H16.9363V2.9912C16.9363 2.96099 16.961 2.93642 16.9914 2.93642ZM26.5504 58.5373H47.4496V59.6268C47.4496 60.2276 46.9608 60.7164 46.36 60.7164H27.64C27.0392 60.7164 26.5504 60.2276 26.5504 59.6268V58.5373ZM66.0177 65.0635H7.98232C4.77632 65.0635 2.16797 62.4551 2.16797 59.2491C2.16797 58.8567 2.48724 58.5373 2.87979 58.5373H24.3824V59.6268C24.3824 61.423 25.8438 62.8844 27.64 62.8844H46.36C48.1562 62.8844 49.6176 61.423 49.6176 59.6268V58.5373H71.1202C71.5128 58.5373 71.832 58.8566 71.832 59.2491C71.832 62.4553 69.2237 65.0635 66.0177 65.0635Z" fill="#ffb400"/>
<path d="M22.5481 31.811L21.7623 32.0135C20.0178 32.4628 18.9695 34.2384 19.419 35.9831L19.9617 38.0898C20.3401 39.5587 21.6673 40.5366 23.1187 40.5365C23.7424 40.5365 24.0905 40.373 24.8461 40.1974C25.3955 40.8375 26.2329 41.1921 27.1008 41.1088L30.902 46.8705C31.2972 47.4696 31.962 47.8152 32.657 47.8152C33.0878 47.8152 33.2741 47.7077 34.4117 47.4316C35.5368 47.142 36.213 45.9967 35.9232 44.8714L34.4738 39.2459L36.0206 38.8475C40.1412 37.786 44.4811 38.8019 47.6977 41.5639L47.7113 41.6167C47.9201 42.4275 48.4323 43.1084 49.1534 43.534C49.6425 43.8228 50.188 43.9705 50.7414 43.9705C51.0038 43.9705 51.268 43.9373 51.5288 43.8701C52.3396 43.6612 53.0205 43.149 53.4461 42.4279C53.8718 41.7069 53.9912 40.8632 53.7822 40.0526L48.0006 17.6121C47.7918 16.8013 47.2796 16.1204 46.5585 15.6947C45.8376 15.2692 44.9939 15.1498 44.183 15.3587C43.3722 15.5675 42.6913 16.0798 42.2656 16.8008C41.84 17.5219 41.7206 18.3655 41.9296 19.1762L41.9432 19.2289C40.4617 23.2014 37.153 26.1881 33.0325 27.2497L24.5214 29.4425C23.3956 29.7326 22.628 30.7109 22.5481 31.811ZM23.3907 38.3337C22.8081 38.4838 22.2115 38.1319 22.0612 37.549L21.5185 35.4423C21.3679 34.858 21.7189 34.2635 22.3033 34.1129L22.9542 33.9451L24.0417 38.166L23.3907 38.3337ZM33.8074 45.3486L32.686 45.6375L29.3415 40.5683L32.3743 39.7869L33.8074 45.3486ZM44.1325 17.9027C44.2638 17.6804 44.4738 17.5225 44.7238 17.458C44.8045 17.4372 44.8853 17.4274 44.9649 17.4274C45.3953 17.4274 45.7889 17.7174 45.9012 18.1529L51.6827 40.5934C51.8157 41.1095 51.5039 41.6376 50.9878 41.7706C50.4718 41.9036 49.9436 41.592 49.8106 41.0757L44.0289 18.6352C43.9646 18.3852 44.0013 18.1252 44.1325 17.9027ZM42.7793 22.474L46.8616 38.3186C41.0175 34.9132 35.4518 36.7811 35.3229 36.7883L33.4167 29.3893C33.5338 29.333 39.302 28.2899 42.7793 22.474ZM25.0622 31.542L31.3172 29.9305L33.2235 37.3295C31.32 37.8199 28.2818 38.6026 26.9686 38.941C26.5142 39.0576 26.3994 38.5974 26.3879 38.583L24.7221 32.1181C24.6571 31.8655 24.8097 31.607 25.0622 31.542Z" fill="#ffb400"/>
</svg>